<svg width="24" height="24" viewBox="0 0 24 24" fill="none" xmlns="http://www.w3.org/2000/svg">
<path d="M14.5875 15.995L16.0015 14.5815L22.011 20.591L20.597 22.0045L14.5875 15.995Z" fill="#616161"/>
<path d="M10 18C14.4183 18 18 14.4183 18 10C18 5.58172 14.4183 2 10 2C5.58172 2 2 5.58172 2 10C2 14.4183 5.58172 18 10 18Z" fill="#616161"/>
<path d="M16.225 17.6701L17.6385 16.2561L21.9865 20.6041L20.5725 22.0181L16.225 17.6701Z" fill="#37474F"/>
<path d="M10 16.5C13.5899 16.5 16.5 13.5899 16.5 10C16.5 6.41015 13.5899 3.5 10 3.5C6.41015 3.5 3.5 6.41015 3.5 10C3.5 13.5899 6.41015 16.5 10 16.5Z" fill="#64B5F6"/>
<path d="M13.45 7.1C12.6 6.1 11.35 5.5 10 5.5C8.65005 5.5 7.40005 6.1 6.55005 7.1C6.35005 7.3 6.40005 7.65 6.60005 7.8C6.80005 8 7.15005 7.95 7.30005 7.75C8.00005 6.95 8.95005 6.5 10 6.5C11.05 6.5 12 6.95 12.7 7.75C12.8 7.85 12.9501 7.95 13.1001 7.95C13.2001 7.95 13.35 7.9 13.4 7.85C13.6 7.65 13.6 7.3 13.45 7.1Z" fill="#BBDEFB"/>
</svg>
